<svg width="32" height="32" viewBox="0 0 32 32" fill="none" xmlns="http://www.w3.org/2000/svg">
<g clip-path="url(#clip0_2043_110)">
<path d="M6.75977 25.0821C7.44954 25.5258 8.59622 26.0189 9.80869 26.0189C10.9127 26.0189 11.9385 25.689 12.7883 25.1261L12.7919 25.1242L16.0008 23.0562V30.5235C15.4923 30.5235 14.9803 30.3805 14.5359 30.0947L6.75977 25.0821Z" fill="#225086"/>
<path d="M13.9611 2.11945L0.627557 17.6297C-0.401792 18.8287 -0.133335 20.6401 1.20178 21.4998C1.20178 21.4998 6.13697 24.6807 6.75919 25.0823C7.44899 25.526 8.59568 26.0191 9.80815 26.0191C10.9122 26.0191 11.9379 25.6892 12.7877 25.1263L12.7913 25.1244L16.0002 23.0564L8.24188 18.055L16.002 9.02755V1.18994C15.2482 1.18994 14.4944 1.49979 13.9611 2.11945Z" fill="#66DDFF"/>
<path d="M8.24219 18.0543L8.33462 18.113L16.0005 23.0558L16.0023 9.02867L8.24219 18.0543Z" fill="#CBF8FF"/>
<path d="M30.7978 21.4996C32.1327 20.6398 32.4012 18.8285 31.3719 17.6294L22.6232 7.45245C21.9176 7.11327 21.1264 6.91895 20.289 6.91895C18.6446 6.91895 17.1743 7.65045 16.1965 8.79996L16.0027 9.02548L23.7611 18.0529L16.001 23.0543V30.5216C16.5112 30.5216 17.0197 30.3787 17.4641 30.0925L30.7978 21.4996Z" fill="#074793"/>
<path d="M16.0018 1.18994V9.02755L16.1955 8.80205C17.1734 7.65254 18.6436 6.92101 20.2881 6.92101C21.1272 6.92101 21.9166 7.1172 22.6222 7.45454L18.0374 2.12129C17.5058 1.5016 16.7538 1.18994 16.0018 1.18994Z" fill="#0294E4"/>
<path d="M23.7583 18.0559L16 9.03027V23.0555L23.7583 18.0559Z" fill="#96BCC2"/>
</g>
<defs>
<clipPath id="clip0_2043_110">
<rect width="16" height="16" fill="white" transform="scale(2)"/>
</clipPath>
</defs>
</svg>
