<svg width="32" height="32" viewBox="0 0 32 32" fill="none" xmlns="http://www.w3.org/2000/svg">
<path d="M12.6954 2.0166H24.7637C28.1412 2.0166 30.3475 5.54207 28.8972 8.57141L29.1216 8.12421L24.9273 16.5129C24.9153 16.5378 24.9031 16.5628 24.8907 16.5877L24.2356 17.8964L24.8909 16.5858C24.1149 18.1376 22.5288 19.1179 20.7938 19.1179H13.5472L8.41662 29.3791C8.01407 30.1842 6.86517 30.1842 6.46261 29.3791L2.87883 22.2116C2.55216 21.5582 2.59403 20.8519 2.88898 20.2793L6.83579 12.3856C7.20585 11.6455 7.96231 11.178 8.7898 11.178H23.9125C23.1118 10.4296 22.0318 9.9565 20.7945 9.9565H9.81777C9.00576 9.9565 8.47764 9.10195 8.84077 8.37566L11.7184 2.62042C11.9034 2.25036 12.2816 2.0166 12.6954 2.0166Z" fill="white"/>
<path d="M4.79031 19.1182H13.5467L8.41613 29.3794C8.01358 30.1845 6.86467 30.1845 6.46212 29.3794L2.87834 22.2118C2.16767 20.7905 3.20122 19.1182 4.79031 19.1182Z" fill="url(#paint0_linear_2148_302)"/>
<path d="M12.695 2.0166H24.7633C28.1685 2.0166 30.3833 5.60015 28.8604 8.64586L24.9269 16.5129C24.9149 16.5378 24.9027 16.5628 24.8903 16.5877L24.2351 17.8964L24.9269 16.5129C26.3786 13.4835 24.1724 9.9565 20.7941 9.9565H9.81737C9.00536 9.9565 8.47721 9.10195 8.84037 8.37566L11.718 2.62042C11.903 2.25036 12.2812 2.0166 12.695 2.0166Z" fill="url(#paint1_linear_2148_302)"/>
<path d="M12.695 2.0166H24.7633C28.1685 2.0166 30.3833 5.60015 28.8604 8.64587L24.9181 16.5304C24.9089 16.5495 24.8994 16.5687 24.8899 16.5878L24.5405 17.2856L24.9181 16.5304C26.3868 13.4971 24.1786 9.9565 20.7938 9.9565H9.81737C9.00536 9.9565 8.47721 9.10195 8.84037 8.37567L11.718 2.62042C11.903 2.25036 12.2812 2.0166 12.695 2.0166Z" fill="url(#paint2_linear_2148_302)"/>
<path d="M20.7934 19.1182H4.8195C3.99219 19.1182 3.23587 19.5855 2.86572 20.3254L6.83544 12.3859C7.2055 11.6458 7.96195 11.1783 8.78944 11.1783H24.7624C26.4951 11.1783 28.0795 10.2006 28.8566 8.65196L29.1213 8.12451L24.8905 16.5861C24.1146 18.1379 22.5285 19.1182 20.7934 19.1182Z" fill="url(#paint3_linear_2148_302)"/>
<path opacity="0.7" d="M20.7842 19.1183H4.83096C4.00348 19.1183 3.24701 19.5858 2.87695 20.326L6.8469 12.386C7.21696 11.6459 7.97342 11.1784 8.80091 11.1784H24.8457C26.524 11.1784 28.0593 10.2336 28.8156 8.73535L24.8795 16.5898C24.1028 18.1397 22.5178 19.1183 20.7842 19.1183Z" fill="url(#paint4_linear_2148_302)"/>
<defs>
<linearGradient id="paint0_linear_2148_302" x1="4.38532" y1="19.1182" x2="7.43912" y2="30.7226" gradientUnits="userSpaceOnUse">
<stop stop-color="#159455"/>
<stop offset="1" stop-color="#3FBDA9"/>
</linearGradient>
<linearGradient id="paint1_linear_2148_302" x1="9.24054" y1="3.09238" x2="26.9577" y2="10.9694" gradientUnits="userSpaceOnUse">
<stop stop-color="#23A794"/>
<stop offset="0.568447" stop-color="#007A84"/>
<stop offset="1" stop-color="#005158"/>
</linearGradient>
<linearGradient id="paint2_linear_2148_302" x1="24.2351" y1="13.6211" x2="21.0286" y2="5.2231" gradientUnits="userSpaceOnUse">
<stop stop-color="#004A8B"/>
<stop offset="0.405563" stop-color="#105DA8" stop-opacity="0.500243"/>
<stop offset="1" stop-color="#2170C6" stop-opacity="0"/>
</linearGradient>
<linearGradient id="paint3_linear_2148_302" x1="6.8285" y1="12.3998" x2="22.861" y2="20.3397" gradientUnits="userSpaceOnUse">
<stop stop-color="#7FD9A2"/>
<stop offset="0.196063" stop-color="#47BF79"/>
<stop offset="0.713946" stop-color="#009280"/>
<stop offset="1" stop-color="#007A84"/>
</linearGradient>
<linearGradient id="paint4_linear_2148_302" x1="6.67552" y1="12.7053" x2="10.3401" y2="14.5376" gradientUnits="userSpaceOnUse">
<stop stop-color="#A8E47C" stop-opacity="0.86"/>
<stop offset="0.367474" stop-color="#87D152" stop-opacity="0.2"/>
<stop offset="1" stop-color="#58BE5A" stop-opacity="0"/>
</linearGradient>
</defs>
</svg>
