<svg width="32" height="32" viewBox="0 0 32 32" fill="none" xmlns="http://www.w3.org/2000/svg">
<path fill-rule="evenodd" clip-rule="evenodd" d="M29.401 16.3186C29.401 15.3261 29.312 14.371 29.1466 13.4551H15.9609V18.8706H23.4954C23.171 20.6207 22.1844 22.1031 20.702 23.0963V26.6087H25.2264C27.874 24.1711 29.401 20.5821 29.401 16.3186Z" fill="#4285F4"/>
<path fill-rule="evenodd" clip-rule="evenodd" d="M15.9603 30.0017C19.7404 30.0017 22.9094 28.7483 25.2258 26.6095L20.7014 23.0971C19.4479 23.9371 17.8438 24.4337 15.9603 24.4337C12.3138 24.4337 9.22784 21.9711 8.12678 18.6616H3.44922V22.2891C5.7527 26.8647 10.4872 30.0017 15.9603 30.0017Z" fill="#34A853"/>
<path fill-rule="evenodd" clip-rule="evenodd" d="M8.1275 18.6605C7.8475 17.8205 7.68854 16.923 7.68854 16.0005C7.68854 15.078 7.8475 14.1805 8.1275 13.3405V9.71289H3.44994C2.50196 11.6029 1.96094 13.7415 1.96094 16.0005C1.96094 18.2595 2.50196 20.3981 3.44994 22.2881L8.1275 18.6605Z" fill="#FBBC05"/>
<path fill-rule="evenodd" clip-rule="evenodd" d="M15.9603 7.56802C18.0159 7.56802 19.8614 8.27454 21.3124 9.6615L25.328 5.64596C22.9028 3.38756 19.7339 2 15.9603 2C10.4878 2 5.7527 5.13758 3.44922 9.71252L8.12678 13.3401C9.22784 10.0311 12.3144 7.56802 15.9603 7.56802Z" fill="#EA4335"/>
</svg>
