<svg width="32" height="32" viewBox="0 0 32 32" fill="none" xmlns="http://www.w3.org/2000/svg">
<path d="M13.39 2.02002L13.2403 2.1106C13.0021 2.2547 12.7777 2.41581 12.5682 2.59186L13.0002 2.28802H16.6664L17.3329 7.33477L14.0004 10.6673L10.6679 12.9836V15.6546C10.6679 17.5202 11.6429 19.2501 13.2389 20.2161L16.7471 22.3396L9.33492 26.6634H7.90535L5.24086 25.0506C3.64492 24.0846 2.66992 22.3547 2.66992 20.4891V11.5075C2.66992 9.64133 3.64554 7.91096 5.24229 6.94513L13.2403 2.10732C13.2899 2.07735 13.3398 2.04825 13.39 2.02002Z" fill="url(#paint0_radial_2141_105)"/>
<path d="M13.39 2.02002L13.2403 2.1106C13.0021 2.2547 12.7777 2.41581 12.5682 2.59186L13.0002 2.28802H16.6664L17.3329 7.33477L14.0004 10.6673L10.6679 12.9836V15.6546C10.6679 17.5202 11.6429 19.2501 13.2389 20.2161L16.7471 22.3396L9.33492 26.6634H7.90535L5.24086 25.0506C3.64492 24.0846 2.66992 22.3547 2.66992 20.4891V11.5075C2.66992 9.64133 3.64554 7.91096 5.24229 6.94513L13.2403 2.10732C13.2899 2.07735 13.3398 2.04825 13.39 2.02002Z" fill="url(#paint1_linear_2141_105)"/>
<path d="M21.332 12.667V15.6531C21.332 17.5186 20.3569 19.2485 18.761 20.2146L10.763 25.0558C9.12688 26.0461 7.09119 26.0818 5.42627 25.163L13.2388 29.892C14.9362 30.9194 17.0636 30.9194 18.761 29.892L26.759 25.0508C28.3549 24.0847 29.3299 22.3548 29.3299 20.4893V18.3322L28.6634 17.3325L21.332 12.667Z" fill="url(#paint2_radial_2141_105)"/>
<path d="M21.332 12.667V15.6531C21.332 17.5186 20.3569 19.2485 18.761 20.2146L10.763 25.0558C9.12688 26.0461 7.09119 26.0818 5.42627 25.163L13.2388 29.892C14.9362 30.9194 17.0636 30.9194 18.761 29.892L26.759 25.0508C28.3549 24.0847 29.3299 22.3548 29.3299 20.4893V18.3322L28.6634 17.3325L21.332 12.667Z" fill="url(#paint3_linear_2141_105)"/>
<path d="M26.7576 6.94539L18.7596 2.10758C17.1156 1.11312 15.0683 1.08231 13.3992 2.01516L13.2403 2.11127C11.6436 3.07711 10.668 4.80743 10.668 6.67359V12.9946L13.2403 11.4386C14.937 10.4124 17.063 10.4124 18.7596 11.4386L26.7576 16.2764C28.3044 17.2121 29.2684 18.8651 29.3271 20.6641C29.329 20.606 29.33 20.5478 29.33 20.4894V11.5077C29.33 9.64158 28.3543 7.91121 26.7576 6.94539Z" fill="url(#paint4_radial_2141_105)"/>
<path d="M26.7576 6.94539L18.7596 2.10758C17.1156 1.11312 15.0683 1.08231 13.3992 2.01516L13.2403 2.11127C11.6436 3.07711 10.668 4.80743 10.668 6.67359V12.9946L13.2403 11.4386C14.937 10.4124 17.063 10.4124 18.7596 11.4386L26.7576 16.2764C28.3044 17.2121 29.2684 18.8651 29.3271 20.6641C29.329 20.606 29.33 20.5478 29.33 20.4894V11.5077C29.33 9.64158 28.3543 7.91121 26.7576 6.94539Z" fill="url(#paint5_linear_2141_105)"/>
<defs>
<radialGradient id="paint0_radial_2141_105" cx="0" cy="0" r="1" gradientUnits="userSpaceOnUse" gradientTransform="translate(11.6134 7.0937) rotate(110.528) scale(22.2382 38.788)">
<stop offset="0.06441" stop-color="#AE7FE2"/>
<stop offset="1" stop-color="#0078D4"/>
</radialGradient>
<linearGradient id="paint1_linear_2141_105" x1="11.6756" y1="25.2426" x2="8.50266" y2="19.7548" gradientUnits="userSpaceOnUse">
<stop stop-color="#114A8B"/>
<stop offset="1" stop-color="#0078D4" stop-opacity="0"/>
</linearGradient>
<radialGradient id="paint2_radial_2141_105" cx="0" cy="0" r="1" gradientUnits="userSpaceOnUse" gradientTransform="translate(6.95549 24.2315) rotate(-8.36717) scale(20.695 13.6705)">
<stop offset="0.133928" stop-color="#D59DFF"/>
<stop offset="1" stop-color="#5E438F"/>
</radialGradient>
<linearGradient id="paint3_linear_2141_105" x1="26.9016" y1="16.9171" x2="23.5015" y2="21.7924" gradientUnits="userSpaceOnUse">
<stop stop-color="#493474"/>
<stop offset="1" stop-color="#8C66BA" stop-opacity="0"/>
</linearGradient>
<radialGradient id="paint4_radial_2141_105" cx="0" cy="0" r="1" gradientUnits="userSpaceOnUse" gradientTransform="translate(27.3673 17.6685) rotate(-165.772) scale(16.611 27.9631)">
<stop offset="0.0584996" stop-color="#50E6FF"/>
<stop offset="1" stop-color="#436DCD"/>
</radialGradient>
<linearGradient id="paint5_linear_2141_105" x1="11.3183" y1="2.04078" x2="16.3244" y2="2.04078" gradientUnits="userSpaceOnUse">
<stop stop-color="#2D3F80"/>
<stop offset="1" stop-color="#436DCD" stop-opacity="0"/>
</linearGradient>
</defs>
</svg>
