<svg width="32" height="32" viewBox="0 0 32 32" fill="none" xmlns="http://www.w3.org/2000/svg">
<path fill-rule="evenodd" clip-rule="evenodd" d="M13.6537 8.1378C14.5566 7.19722 15.8145 6.61316 17.205 6.61316C19.0533 6.61316 20.6664 7.64408 21.5252 9.17452C22.2936 8.8313 23.126 8.65438 23.9674 8.6554C27.3016 8.6554 30.0042 11.3818 30.0042 14.7456C30.0042 18.1094 27.3016 20.8358 23.9674 20.8358C23.5598 20.8358 23.1622 20.7952 22.778 20.7176C22.0218 22.0662 20.5798 22.9776 18.9256 22.9776C18.2331 22.9776 17.578 22.8184 16.9952 22.5332C16.2282 24.3372 14.4418 25.6016 12.36 25.6016C10.1922 25.6016 8.34415 24.2294 7.63513 22.3056C7.31921 22.3724 6.99721 22.406 6.67435 22.4058C4.09277 22.4062 2.00001 20.2916 2.00001 17.6831C1.99807 16.8564 2.21285 16.0437 2.62293 15.3259C3.03301 14.6081 3.62405 14.0104 4.33717 13.5922C4.04133 12.9105 3.88911 12.1752 3.89001 11.4321C3.89001 8.43182 6.32519 6 9.32913 6C10.166 5.99902 10.9917 6.19146 11.7419 6.5623C12.492 6.93314 13.1463 7.47234 13.6537 8.1378Z" fill="#00A1E0"/>
<path fill-rule="evenodd" clip-rule="evenodd" d="M6.05634 16.165L6.16966 15.8505C6.18774 15.7965 6.22846 15.8143 6.245 15.8244C6.27656 15.8431 6.29922 15.8599 6.33996 15.8838C6.67378 16.0949 6.98312 16.097 7.0796 16.097C7.32952 16.097 7.4845 15.9647 7.4845 15.7861V15.7769C7.4845 15.5828 7.2456 15.5093 6.96964 15.4247L6.9084 15.4051C6.52954 15.2973 6.12434 15.1414 6.12434 14.6618V14.652C6.12434 14.1969 6.49156 13.8793 7.01712 13.8793L7.0747 13.8786C7.38342 13.8786 7.68174 13.9684 7.89796 14.0995C7.91756 14.1117 7.93656 14.1344 7.92552 14.1644L7.80914 14.479C7.78862 14.5326 7.73258 14.497 7.73258 14.497C7.50698 14.3795 7.25736 14.3154 7.00304 14.3099C6.78006 14.3099 6.63672 14.4281 6.63672 14.5886V14.5987C6.63672 14.7858 6.88236 14.8658 7.1672 14.9586L7.2162 14.9739C7.59384 15.0933 7.99688 15.2587 7.99688 15.7135V15.723C7.99688 16.2146 7.63978 16.5199 7.06552 16.5199C6.78344 16.5199 6.5136 16.4765 6.22816 16.3249C6.17426 16.2936 6.12096 16.2667 6.06828 16.2284C6.06278 16.2204 6.03888 16.2109 6.05634 16.165ZM14.4657 16.165L14.5793 15.8505C14.5959 15.799 14.6439 15.818 14.6544 15.8244C14.6856 15.8437 14.7089 15.8599 14.7493 15.8838C15.0837 16.0949 15.3925 16.097 15.4899 16.097C15.7389 16.097 15.8941 15.9647 15.8941 15.7861V15.7769C15.8941 15.5828 15.6556 15.5093 15.3796 15.4247L15.3184 15.4051C14.9389 15.2973 14.5337 15.1414 14.5337 14.6618V14.652C14.5337 14.1969 14.9012 13.8793 15.4268 13.8793L15.484 13.8786C15.7928 13.8786 16.0914 13.9684 16.3079 14.0995C16.3269 14.1117 16.3462 14.1344 16.3355 14.1644C16.3248 14.1923 16.2292 14.4496 16.2191 14.479C16.198 14.5326 16.1425 14.497 16.1425 14.497C15.9169 14.3794 15.6671 14.3154 15.4127 14.3099C15.1897 14.3099 15.0464 14.4281 15.0464 14.5886V14.5987C15.0464 14.7858 15.2917 14.8658 15.5768 14.9586L15.6259 14.9739C16.0035 15.0933 16.4062 15.2587 16.4062 15.7135V15.723C16.4062 16.2146 16.0494 16.5199 15.4752 16.5199C15.1928 16.5199 14.923 16.4765 14.6378 16.3249C14.5839 16.2936 14.5306 16.2667 14.4776 16.2284C14.4721 16.2204 14.4479 16.2109 14.4657 16.165ZM20.6862 14.686C20.7332 14.844 20.7566 15.0177 20.7566 15.2011C20.7566 15.3849 20.7332 15.558 20.6862 15.716C20.643 15.8684 20.569 16.0103 20.4686 16.1328C20.3682 16.2519 20.2422 16.3467 20.0998 16.4103C19.9529 16.4777 19.7801 16.5114 19.586 16.5114C19.3918 16.5114 19.2184 16.4777 19.072 16.4103C18.9298 16.3467 18.8038 16.2519 18.7033 16.1328C18.6031 16.0103 18.529 15.8685 18.4855 15.7163C18.4374 15.5489 18.4136 15.3753 18.4151 15.2011C18.4151 15.0174 18.4387 14.844 18.4855 14.686C18.5327 14.5267 18.6059 14.3865 18.703 14.2695C18.8037 14.15 18.9298 14.0543 19.072 13.9895C19.2187 13.9209 19.3912 13.8863 19.586 13.8863C19.7808 13.8863 19.9532 13.9209 20.0998 13.9895C20.2462 14.0578 20.3706 14.1519 20.4686 14.2695C20.566 14.3865 20.6396 14.5267 20.6862 14.686ZM20.207 15.2011C20.207 14.9233 20.1556 14.705 20.0534 14.5519C19.9523 14.3999 19.7991 14.3264 19.586 14.3264C19.3728 14.3264 19.2209 14.3999 19.121 14.5519C19.0209 14.705 18.9697 14.9233 18.9697 15.2011C18.9697 15.4786 19.0209 15.6985 19.1217 15.8529C19.2209 16.0066 19.3728 16.0811 19.586 16.0811C19.7991 16.0811 19.9523 16.0063 20.0534 15.8529C20.155 15.6985 20.207 15.4786 20.207 15.2011ZM24.6242 16.0066L24.7418 16.3319C24.757 16.3717 24.7224 16.3892 24.7224 16.3892C24.5408 16.4596 24.2888 16.5099 24.0434 16.5099C23.6276 16.5099 23.309 16.3901 23.0964 16.1536C22.8852 15.9178 22.7774 15.5972 22.7774 15.1993C22.7774 15.0152 22.804 14.841 22.856 14.6832C22.9082 14.524 22.9862 14.3837 23.0892 14.2667C23.196 14.1464 23.3278 14.0509 23.4754 13.9868C23.6284 13.9185 23.8086 13.8842 24.0094 13.8842C24.1452 13.8842 24.2658 13.8924 24.3694 13.9078C24.48 13.9249 24.6272 13.9647 24.6894 13.9889C24.7008 13.9932 24.7322 14.0085 24.7194 14.0456C24.674 14.1733 24.6432 14.2566 24.6012 14.373C24.5828 14.4226 24.5454 14.406 24.5454 14.406C24.3878 14.3564 24.2364 14.3338 24.0388 14.3338C23.8016 14.3338 23.6232 14.4128 23.5068 14.5675C23.3892 14.7234 23.3234 14.9277 23.3226 15.1993C23.3216 15.4973 23.3964 15.7181 23.5286 15.8547C23.6606 15.991 23.845 16.0599 24.0772 16.0599C24.1712 16.0599 24.26 16.0538 24.34 16.0412C24.419 16.0287 24.493 16.0042 24.563 15.9769C24.563 15.9769 24.608 15.9601 24.6242 16.0066ZM27.0774 14.5956C27.1818 14.9613 27.1274 15.2771 27.1254 15.2945C27.1216 15.3362 27.0786 15.3368 27.0786 15.3368L25.4556 15.3356C25.4658 15.5822 25.525 15.7567 25.6444 15.8752C25.7616 15.9913 25.9478 16.0657 26.2 16.0661C26.5852 16.067 26.7498 15.9895 26.8664 15.9463C26.8664 15.9463 26.9108 15.9304 26.9276 15.9745L27.0334 16.2719C27.0548 16.3218 27.0376 16.3393 27.0196 16.3494C26.9178 16.4054 26.6712 16.5101 26.202 16.5114C25.9746 16.5123 25.7764 16.4798 25.6132 16.4164C25.458 16.359 25.3182 16.2664 25.2048 16.146C25.0964 16.0278 25.016 15.8869 24.9694 15.7334C24.919 15.5654 24.8944 15.3907 24.8962 15.2152C24.8962 15.0315 24.9198 14.8569 24.9672 14.6973C25.0146 14.5365 25.0884 14.3947 25.1868 14.2756C25.2886 14.154 25.4164 14.0567 25.5608 13.9908C25.7096 13.9206 25.894 13.8863 26.0968 13.8863C26.2704 13.8863 26.429 13.9237 26.561 13.9806C26.6628 14.0241 26.765 14.1029 26.8698 14.2156C26.936 14.2866 27.0366 14.4422 27.0774 14.5956ZM25.4634 14.9347H26.621C26.6092 14.7858 26.58 14.6523 26.5132 14.5519C26.4116 14.3999 26.2714 14.3163 26.0584 14.3163C25.8452 14.3163 25.694 14.3999 25.5938 14.5519C25.5282 14.6523 25.4864 14.7803 25.4634 14.9347ZM14.0776 14.5956C14.1818 14.9613 14.1282 15.2771 14.1263 15.2945C14.1221 15.3362 14.0792 15.3368 14.0792 15.3368L12.4559 15.3356C12.4663 15.5822 12.5251 15.7567 12.6449 15.8752C12.7622 15.9913 12.9481 16.0657 13.2002 16.0661C13.5855 16.067 13.7505 15.9895 13.8669 15.9463C13.8669 15.9463 13.9113 15.9304 13.9279 15.9745L14.0338 16.2719C14.0553 16.3218 14.0381 16.3393 14.0204 16.3494C13.9181 16.4054 13.6712 16.5101 13.2026 16.5114C12.9748 16.5123 12.7766 16.4798 12.6137 16.4164C12.4585 16.3589 12.3187 16.2663 12.2051 16.146C12.097 16.0277 12.0167 15.8868 11.9702 15.7334C11.9196 15.5654 11.8947 15.3907 11.8964 15.2152C11.8964 15.0315 11.9203 14.8569 11.9674 14.6973C12.0115 14.5434 12.0863 14.3999 12.1873 14.2756C12.2892 14.1541 12.4168 14.0568 12.561 13.9908C12.7104 13.9206 12.8948 13.8863 13.097 13.8863C13.2567 13.8859 13.4149 13.918 13.5619 13.9806C13.6636 14.0241 13.7659 14.1029 13.8703 14.2156C13.9364 14.2866 14.0372 14.4422 14.0776 14.5956ZM12.4633 14.9347H13.6216C13.6093 14.7858 13.5803 14.6523 13.5138 14.5519C13.4127 14.3999 13.2718 14.3163 13.059 14.3163C12.8458 14.3163 12.6942 14.3999 12.5947 14.5519C12.5285 14.6523 12.4869 14.7803 12.4633 14.9347ZM9.60084 14.8572C9.60084 14.8572 9.72886 14.8685 9.86852 14.8888V14.8202C9.86852 14.6036 9.8235 14.5016 9.735 14.4333C9.64434 14.3641 9.50896 14.3283 9.33378 14.3283C9.33378 14.3283 8.93868 14.3234 8.62628 14.4931C8.61188 14.5016 8.59994 14.5065 8.59994 14.5065C8.59994 14.5065 8.56074 14.5203 8.54666 14.4802L8.4318 14.1715C8.41404 14.1271 8.4462 14.1068 8.4462 14.1068C8.59228 13.9929 8.94634 13.924 8.94634 13.924C9.09006 13.8987 9.23562 13.8853 9.38156 13.8839C9.70558 13.8839 9.95642 13.9592 10.127 14.1084C10.2979 14.2581 10.3849 14.4995 10.3849 14.8247L10.3858 16.3096C10.3858 16.3096 10.3892 16.3524 10.3485 16.3622C10.3485 16.3622 10.2887 16.3788 10.2351 16.3913C10.1809 16.4039 9.98552 16.4437 9.82596 16.4707C9.663 16.498 9.49808 16.5117 9.33286 16.5117C9.17512 16.5117 9.03056 16.497 8.90316 16.4679C8.78442 16.443 8.67198 16.3942 8.57268 16.3245C8.4822 16.2588 8.40956 16.1716 8.36136 16.0707C8.31144 15.9687 8.28632 15.844 8.28632 15.7001C8.28632 15.5589 8.31602 15.433 8.3733 15.3258C8.43088 15.2192 8.5099 15.1289 8.60914 15.0581C8.71164 14.9859 8.82626 14.9327 8.94756 14.901C9.07406 14.8673 9.2085 14.8498 9.34756 14.8498C9.44954 14.8498 9.53468 14.852 9.60084 14.8572ZM8.95492 15.9978C8.954 15.9975 9.1004 16.1126 9.43086 16.0924C9.66302 16.0783 9.86884 16.0342 9.86884 16.0342V15.2961C9.86884 15.2961 9.66118 15.2621 9.4281 15.2587C9.09764 15.2548 8.95674 15.3763 8.95766 15.376C8.86028 15.4453 8.8128 15.5478 8.8128 15.6899C8.8128 15.7809 8.82904 15.852 8.8618 15.9016C8.88232 15.9344 8.8912 15.9466 8.95492 15.9978ZM22.6928 14.0208C22.6774 14.0652 22.5988 14.2875 22.5702 14.3614C22.5598 14.3895 22.5428 14.4088 22.5112 14.4054C22.5112 14.4054 22.418 14.384 22.333 14.384C22.2744 14.384 22.1908 14.3913 22.1154 14.4146C22.04 14.4378 21.9712 14.4792 21.9152 14.535C21.8558 14.5923 21.8076 14.6728 21.7728 14.7739C21.7372 14.8756 21.7188 15.0373 21.7188 15.1996V16.4088C21.7188 16.4152 21.7176 16.4217 21.7152 16.4276C21.7128 16.4336 21.7092 16.439 21.7046 16.4436C21.7 16.4482 21.6946 16.4518 21.6886 16.4543C21.6828 16.4568 21.6764 16.4581 21.6698 16.4581H21.2438C21.2374 16.4582 21.2308 16.457 21.2248 16.4546C21.2188 16.4521 21.2132 16.4485 21.2086 16.444C21.2038 16.4394 21.2002 16.434 21.1976 16.428C21.195 16.422 21.1936 16.4156 21.1936 16.4091V13.988C21.1936 13.9607 21.2136 13.939 21.2408 13.939H21.6564C21.684 13.939 21.7036 13.9607 21.7036 13.988V14.1859C21.7658 14.1026 21.8772 14.029 21.978 13.9837C22.079 13.9378 22.192 13.9041 22.3964 13.9163C22.5026 13.9228 22.6408 13.9519 22.6686 13.9626C22.674 13.9648 22.679 13.968 22.6832 13.9721C22.6874 13.9762 22.6906 13.9812 22.693 13.9866C22.6952 13.992 22.6964 13.9978 22.6964 14.0037C22.6962 14.0095 22.6952 14.0154 22.6928 14.0208ZM18.6898 12.8989C18.7011 12.9035 18.7321 12.9185 18.7198 12.9552L18.5952 13.2961C18.5848 13.3219 18.578 13.3372 18.525 13.3212C18.455 13.2992 18.382 13.2878 18.3085 13.2875C18.2442 13.2875 18.186 13.2958 18.1345 13.313C18.0831 13.3295 18.0364 13.3583 17.9986 13.3969C17.9482 13.4455 17.9093 13.5048 17.8846 13.5702C17.8249 13.7418 17.8019 13.9246 17.7989 13.9362H18.3177C18.3615 13.9362 18.3753 13.9565 18.371 13.9886L18.3103 14.3261C18.3005 14.3751 18.2561 14.3733 18.2561 14.3733H17.7214L17.356 16.4425C17.3246 16.628 17.2768 16.8105 17.2133 16.9876C17.156 17.1374 17.0969 17.2467 17.0019 17.3512C16.9209 17.4446 16.8179 17.5164 16.7021 17.5601C16.5897 17.6014 16.4531 17.6226 16.3039 17.6226C16.2329 17.6226 16.1563 17.621 16.066 17.5996C16.0156 17.5881 15.966 17.5735 15.9174 17.5561C15.8975 17.549 15.8813 17.5236 15.8929 17.4912C15.9039 17.459 16.0001 17.1959 16.013 17.1613C16.0295 17.1197 16.0718 17.1356 16.0718 17.1356C16.1006 17.1478 16.1208 17.1558 16.1591 17.1634C16.198 17.1711 16.25 17.1778 16.2895 17.1778C16.3603 17.1778 16.4246 17.1692 16.4807 17.1503C16.548 17.1285 16.5879 17.089 16.6289 17.0363C16.6718 16.9809 16.7067 16.9059 16.7425 16.8051C16.7784 16.7031 16.8111 16.5684 16.8393 16.4051L17.2032 14.3736H16.8448C16.8019 14.3736 16.7872 14.3534 16.7921 14.3209L16.8522 13.9834C16.8617 13.9344 16.9073 13.9362 16.9073 13.9362H17.2751L17.295 13.8266C17.3502 13.5007 17.4595 13.253 17.6212 13.0903C17.7839 12.9265 18.0151 12.8438 18.3085 12.8438C18.3924 12.8438 18.4665 12.8493 18.5293 12.8606C18.5909 12.8723 18.6377 12.883 18.6898 12.8989ZM11.4385 16.4088C11.4385 16.4363 11.4195 16.4581 11.3919 16.4581H10.9616C10.9341 16.4581 10.9154 16.436 10.9154 16.4091V12.9442C10.9154 12.9176 10.9344 12.8955 10.9613 12.8955H11.3919C11.4195 12.8955 11.4385 12.9176 11.4385 12.9445V16.4088Z" fill="white"/>
</svg>
