<svg width="32" height="32" viewBox="0 0 32 32" fill="none" xmlns="http://www.w3.org/2000/svg">
<path d="M14.9333 26.4986V11.0454L2 26.4986H14.9333Z" fill="#03363D"/>
<path d="M13.0393 10.0254C14.252 8.82516 14.9333 7.19734 14.9333 5.5H2C2 7.19734 2.6813 8.82516 3.89404 10.0254C5.10676 11.2256 6.75158 11.8998 8.46664 11.8998C10.1817 11.8998 11.8265 11.2256 13.0393 10.0254Z" fill="#03363D"/>
<path d="M18.958 21.9745C17.7453 23.1747 17.064 24.8025 17.064 26.4999H29.9972C29.9972 24.8025 29.316 23.1747 28.1032 21.9745C26.8904 20.7743 25.2456 20.1001 23.5306 20.1001C21.8156 20.1001 20.1708 20.7743 18.958 21.9745Z" fill="#03363D"/>
<path d="M17.064 5.5V20.9532L30 5.5H17.064Z" fill="#03363D"/>
</svg>
