<svg width="36" height="18" viewBox="0 0 46.84 23.22" xmlns="http://www.w3.org/2000/svg"><path d="m11.7 23.21c-3.14 0-6.11-1.24-8.32-3.41-2.2-2.18-3.38-5.06-3.38-8.18 0-6.3 5.36-11.62 11.7-11.62 4.06 0 7.15 2.15 9.02 3.95.17.16 1 1 .99 1.63 0 .49-.24.87-.34 1.03l-3.64 5.94c-.18.27-.57.59-1.05.59h-9.41c-.16 0-.29-.06-.35-.18-.07-.12-.06-.26.02-.38.2-.32 1.44-2.19 1.63-2.45.22-.29.43-.29.68-.29h6.28c.37 0 .49-.04.66-.32 0 0 .98-1.66 1.23-2.07.09-.14.11-.35-.06-.52-2.35-2.18-4.55-2.5-5.65-2.5-4.17 0-7.31 3.12-7.31 7.25 0 2 .69 3.84 1.93 5.18 1.34 1.44 3.2 2.21 5.38 2.21 2 0 3.69-.13 5.7-2.25 1.05-1.1 2.32-3.21 2.33-3.23 0 0 3.11-5.22 4.13-6.94.46-.78 1.38-2.04 2.39-2.98 1.78-1.67 4.77-3.67 8.84-3.67 6.47 0 11.74 5.26 11.74 11.73s-5.1 11.48-11.61 11.48c-3.77 0-7.34-1.98-8.9-3.98-.37-.48-.94-1.2-.96-1.78-.01-.38.12-.75.24-.95.54-.92 1.67-2.79 3.37-5.6.24-.35.64-.58 1.03-.58h9.44c.16 0 .28.07.35.18s.06.26-.02.38c-.19.31-1.42 2.19-1.62 2.46-.22.29-.43.29-.68.29 0 0-6.02 0-6.22 0-.37 0-.49.04-.66.31-.32.52-1.27 2.09-1.27 2.09-.1.16-.09.34.02.51.17.23.56.6.56.6 1.21 1.22 3.22 1.93 5.19 1.93 4.28 0 7.32-3.13 7.32-7.39 0-4-3.28-7.25-7.32-7.25-2.2 0-4.16.82-5.81 2.45-.95.93-1.67 2.12-2.25 3.08 0 0-3.27 5.64-3.88 6.59-1.94 3.03-5.5 6.65-11.46 6.65z" fill="black"/></path></svg>
