<?xml version="1.0" encoding="utf-8"?>
<!-- Generator: Adobe Illustrator 28.0.0, SVG Export Plug-In . SVG Version: 6.00 Build 0)  -->
<svg version="1.1" id="Layer_1" xmlns="http://www.w3.org/2000/svg" xmlns:xlink="http://www.w3.org/1999/xlink" x="0px" y="0px"
	 viewBox="0 0 140 48" style="enable-background:new 0 0 140 48;" xml:space="preserve">
<style type="text/css">
	.st0{fill:#006944;}
</style>
<g>
	<path class="st0" d="M109.5,12.1h3.9c0.4,0,0.7,0.3,0.7,0.7v25.4c0,0.4-0.3,0.7-0.7,0.7h-3.9c-0.4,0-0.7-0.3-0.7-0.7V12.7
		C108.8,12.3,109.1,12.1,109.5,12.1z"/>
	<path class="st0" d="M109.5,2.6h3.9c0.4,0,0.7,0.3,0.7,0.7v3.9c0,0.4-0.3,0.7-0.7,0.7h-3.9c-0.4,0-0.7-0.3-0.7-0.7V3.3
		C108.8,2.9,109.1,2.6,109.5,2.6z"/>
	<path class="st0" d="M118.3,38.8c-0.4,0-0.7-0.3-0.7-0.7V3.3c0-0.4,0.3-0.7,0.7-0.7h3.9c0.4,0,0.7,0.3,0.7,0.7v8.8h6.1
		c0.2,0,0.4,0.1,0.5,0.2c0.1,0.1,0.1,0.4,0,0.5c-0.2,0.4-2,3.2-2.2,3.5c-0.2,0.4-0.5,0.4-0.8,0.4h-3.6v21.5c0,0.4-0.3,0.7-0.7,0.7
		L118.3,38.8L118.3,38.8z"/>
	<path class="st0" d="M79,47.8c-0.4,0-0.7-0.3-0.7-0.7V25.3c0-3.8,1.4-7.3,4.1-10s6.1-4.1,9.8-4.1c7.6,0,13.8,6.4,13.8,14.3
		S100,39.7,92.5,39.7c-1.7,0-4.3-0.5-6.3-1.9c0,0-0.2-0.1-0.4-0.4c-0.1-0.2-0.1-0.3-0.1-0.4V37c0-1.4,0-4.5,0-4.6
		c0-0.2,0.1-0.4,0.4-0.4c0.1,0,0.2,0.1,0.4,0.2c1.7,1.5,3.5,2.2,6,2.2c4.7,0,8.1-3.8,8.1-9c0-4.9-3.7-8.6-8.5-8.6s-8.5,3.5-8.5,8.3
		c0,0,0,16.1,0,17.2c0,0.4,0,0.5-0.3,1.1c-0.1,0.1-0.4,0.6-0.8,1.1c-0.6,0.8-1.4,1.9-1.8,2.5c-0.5,0.8-0.8,0.8-1.1,0.8L79,47.8
		L79,47.8z"/>
	<path class="st0" d="M34.5,39.7c-3.7,0-7.1-1.5-9.7-4.2c-2.6-2.7-3.9-6.2-3.9-10c0-7.7,6.2-14.2,13.6-14.2c4.7,0,8.3,2.6,10.5,4.8
		c0.2,0.2,1.2,1.2,1.2,2c0,0.6-0.3,1.1-0.4,1.3l-4.3,7.3c-0.2,0.3-0.7,0.7-1.2,0.7h-11c-0.2,0-0.3-0.1-0.4-0.2
		c-0.1-0.1-0.1-0.3,0-0.5c0.2-0.4,1.7-2.7,1.9-3c0.2-0.4,0.5-0.4,0.8-0.4H39c0.4,0,0.6,0,0.8-0.4c0,0,1.1-2,1.4-2.5
		c0.1-0.2,0.1-0.4-0.1-0.6c-2.7-2.7-5.3-3.1-6.6-3.1c-4.9,0-8.5,3.8-8.5,8.8c0,2.4,0.8,4.7,2.3,6.3c1.5,1.8,3.7,2.7,6.3,2.7
		c2.3,0,4.3-0.2,6.7-2.7c1.2-1.3,2.7-3.9,2.7-3.9c0,0,3.6-6.4,4.8-8.5c0.5-1,1.6-2.5,2.8-3.6c2.1-2,5.6-4.5,10.3-4.5
		c7.5,0,13.7,6.4,13.7,14.3s-6,14-13.5,14c-4.4,0-8.6-2.4-10.4-4.9c-0.4-0.6-1.1-1.5-1.1-2.1c0-0.5,0.1-0.9,0.3-1.2
		c0.6-1.1,1.9-3.4,3.9-6.8c0.3-0.4,0.7-0.7,1.2-0.7h11c0.2,0,0.3,0.1,0.4,0.2c0.1,0.1,0.1,0.3,0,0.5c-0.2,0.4-1.7,2.7-1.9,3
		c-0.2,0.4-0.5,0.4-0.8,0.4c0,0-7,0-7.3,0c-0.4,0-0.6,0-0.8,0.4C56.1,29,55,30.9,55,30.9c-0.1,0.2-0.1,0.4,0,0.6
		c0.2,0.3,0.7,0.7,0.7,0.7c1.4,1.5,3.8,2.4,6.1,2.4c5,0,8.5-3.8,8.5-9c0-4.9-3.8-8.8-8.5-8.8c-2.6,0-4.9,1-6.8,3
		c-1.1,1.1-1.9,2.6-2.6,3.8c0,0-3.8,6.9-4.5,8.1C45.6,35.2,41.5,39.7,34.5,39.7"/>
	<path class="st0" d="M5.3,38.2c0,0.4-0.3,0.7-0.7,0.7H0.8c-0.4,0-0.7-0.3-0.7-0.7v-0.3V8c0-0.4,0-0.5,0.3-1.1
		c0.1-0.1,2.1-2.9,2.4-3.5C3.4,2.7,3.7,2.7,4,2.7h0.6C5,2.7,5.3,3,5.3,3.4c0,0,0,18.4,0,19.3c0,0.4,0.2,0.5,0.4,0.5s0.3-0.1,0.5-0.2
		c2.2-2.6,8.7-10.1,8.7-10.1c0.4-0.5,1.2-0.8,1.7-0.8h4.2c0.3,0,0.5,0.1,0.6,0.3c0.1,0.2,0,0.4-0.2,0.6l-9.7,11.3
		c-0.5,0.5-0.5,0.8,0,1.3c0.1,0.1,8.5,9.2,11.3,12.3c0.2,0.2,0.2,0.4,0.1,0.6c-0.1,0.2-0.4,0.4-0.6,0.4h-4.8c-0.6,0-1.4-0.4-1.8-0.8
		c-0.1-0.1-7.3-7.8-9.8-10.6c-0.1-0.1-0.2-0.2-0.4-0.2c-0.1,0-0.2,0-0.2,0.1c-0.1,0.1-0.1,0.2-0.1,0.4V38.2L5.3,38.2z"/>
	<path class="st0" d="M135.2,7.1h-0.7V2.5h1.7c1.1,0,1.6,0.4,1.6,1.3c0,0.8-0.5,1.2-1.2,1.2l1.3,2h-0.8L136,5.1h-0.8V7.1L135.2,7.1z
		 M136.1,4.5c0.6,0,1.1,0,1.1-0.7c0-0.6-0.5-0.7-1-0.7h-0.9v1.4L136.1,4.5L136.1,4.5z M132.1,4.8c0-2.2,1.8-3.9,3.9-3.9
		s3.9,1.7,3.9,3.9s-1.8,3.9-3.9,3.9S132.1,7.1,132.1,4.8 M136.1,8c1.8,0,3.2-1.4,3.2-3.2s-1.4-3.2-3.2-3.2c-1.8,0-3.2,1.4-3.2,3.2
		S134.3,8,136.1,8"/>
</g>
</svg>
